<svg width="1214" height="129" viewBox="0 0 1214 129" fill="none" xmlns="http://www.w3.org/2000/svg">
<g clip-path="url(#clip0_1799_5158)">
<rect y="0.540527" width="1214" height="128" rx="8" fill="#1D9BF0"/>
<rect x="977.876" y="141.439" width="399.544" height="36.9809" transform="rotate(-26.561 977.876 141.439)" fill="#CEE9FC" fill-opacity="0.1"/>
<rect x="827.898" y="133.221" width="399.544" height="36.9809" transform="rotate(-26.561 827.898 133.221)" fill="#CEE9FC" fill-opacity="0.1"/>
<rect x="635.997" y="158.373" width="399.544" height="36.9809" transform="rotate(-26.561 635.997 158.373)" fill="#CEE9FC" fill-opacity="0.1"/>
<rect x="548.609" y="124.716" width="399.544" height="36.9809" transform="rotate(-26.561 548.609 124.716)" fill="#CEE9FC" fill-opacity="0.1"/>
<rect x="361.654" y="137.005" width="399.544" height="36.9809" transform="rotate(-26.561 361.654 137.005)" fill="#CEE9FC" fill-opacity="0.1"/>
<circle cx="1114.24" cy="128.541" r="99.759" fill="#FFDC49"/>
<circle cx="1114.31" cy="128.474" r="85.943" fill="#B37F01"/>
<ellipse cx="1121.82" cy="128.542" rx="78.4327" ry="83.4632" fill="#E6A902"/>
<path d="M1116.11 142.268C1116.11 145.527 1115.27 148.368 1113.6 150.791C1111.97 153.213 1109.66 155.107 1106.66 156.473C1103.67 157.794 1100.1 158.455 1095.96 158.455C1091.86 158.455 1088.27 157.772 1085.19 156.406C1082.15 154.997 1079.73 153.015 1077.92 150.46C1076.16 147.906 1075.12 144.888 1074.82 141.409H1087.44C1087.52 143.655 1088.27 145.439 1089.68 146.76C1091.14 148.082 1093.14 148.742 1095.69 148.742C1097.15 148.742 1098.4 148.566 1099.46 148.214C1100.52 147.862 1101.33 147.333 1101.9 146.628C1102.52 145.924 1102.83 145.087 1102.83 144.118C1102.83 143.105 1102.37 142.246 1101.44 141.541C1100.56 140.792 1099.42 140.286 1098.01 140.021L1089.35 138.37C1087.46 138.017 1085.74 137.467 1084.2 136.718C1082.66 135.969 1081.31 135.044 1080.17 133.943C1079.07 132.798 1078.21 131.476 1077.59 129.979C1077.02 128.437 1076.73 126.72 1076.73 124.826C1076.73 121.875 1077.53 119.276 1079.11 117.029C1080.7 114.739 1082.88 112.955 1085.65 111.678C1088.43 110.401 1091.6 109.762 1095.17 109.762C1098.95 109.762 1102.3 110.445 1105.21 111.81C1108.16 113.175 1110.52 115.113 1112.28 117.624C1114.08 120.091 1115.1 123.042 1115.32 126.477H1102.7C1102.61 125.024 1102.24 123.768 1101.57 122.711C1100.91 121.654 1100.05 120.839 1099 120.267C1097.94 119.694 1096.71 119.408 1095.3 119.408C1094.06 119.408 1093.01 119.606 1092.13 120.003C1091.25 120.399 1090.56 120.95 1090.08 121.654C1089.59 122.315 1089.35 123.086 1089.35 123.967C1089.35 124.671 1089.55 125.288 1089.95 125.817C1090.39 126.301 1090.96 126.72 1091.66 127.072C1092.37 127.38 1093.14 127.622 1093.98 127.799L1103.16 129.583C1107.39 130.419 1110.6 131.895 1112.81 134.009C1115.01 136.079 1116.11 138.832 1116.11 142.268ZM1134.34 157.794H1121.85V110.357H1134.34V130.309L1149.14 110.357H1163.34L1146.62 132.622L1163.8 157.794H1148.61L1134.34 136.388V157.794Z" fill="#FFDC49"/>
<circle cx="993.372" cy="53.5405" r="99.759" fill="#FFDC49"/>
<circle cx="993.443" cy="53.474" r="85.943" fill="#B37F01"/>
<ellipse cx="1000.95" cy="53.5415" rx="78.4327" ry="83.4632" fill="#E6A902"/>
<path d="M995.24 67.2677C995.24 70.5271 994.403 73.368 992.73 75.7906C991.1 78.2131 988.788 80.1071 985.792 81.4725C982.797 82.7939 979.23 83.4545 975.089 83.4545C970.993 83.4545 967.403 82.7718 964.32 81.4064C961.281 79.9969 958.858 78.0149 957.053 75.4602C955.291 72.9056 954.256 69.8884 953.947 66.4088H966.566C966.655 68.6551 967.403 70.439 968.813 71.7604C970.266 73.0817 972.27 73.7424 974.825 73.7424C976.279 73.7424 977.534 73.5663 978.591 73.2139C979.648 72.8615 980.463 72.333 981.036 71.6282C981.652 70.9235 981.961 70.0866 981.961 69.1176C981.961 68.1046 981.498 67.2457 980.573 66.5409C979.692 65.7922 978.547 65.2856 977.137 65.0214L968.482 63.3696C966.589 63.0173 964.871 62.4667 963.329 61.7179C961.788 60.9691 960.444 60.0442 959.299 58.943C958.198 57.7978 957.339 56.4765 956.722 54.9789C956.15 53.4373 955.863 51.7195 955.863 49.8255C955.863 46.8745 956.656 44.2758 958.242 42.0294C959.827 39.739 962.008 37.9552 964.783 36.6779C967.558 35.4005 970.729 34.7619 974.297 34.7619C978.084 34.7619 981.432 35.4446 984.339 36.81C987.29 38.1754 989.647 40.1134 991.408 42.624C993.214 45.0906 994.227 48.0417 994.448 51.4773H981.828C981.74 50.0237 981.366 48.7684 980.705 47.7113C980.045 46.6542 979.186 45.8394 978.129 45.2668C977.071 44.6942 975.838 44.4079 974.429 44.4079C973.195 44.4079 972.138 44.6061 971.257 45.0025C970.376 45.3989 969.694 45.9495 969.209 46.6542C968.725 47.3149 968.482 48.0857 968.482 48.9666C968.482 49.6714 968.681 50.288 969.077 50.8166C969.518 51.3011 970.09 51.7195 970.795 52.0719C971.5 52.3802 972.27 52.6225 973.107 52.7986L982.291 54.5825C986.519 55.4194 989.735 56.8949 991.937 59.0091C994.139 61.0793 995.24 63.8321 995.24 67.2677ZM1013.47 82.7939H1000.98V35.3565H1013.47V55.3093L1028.27 35.3565H1042.47L1025.76 57.6217L1042.93 82.7939H1027.74L1013.47 61.3876V82.7939Z" fill="#FFDC49"/>
<circle cx="878.116" cy="104.541" r="99.759" fill="#FFDC49"/>
<circle cx="878.187" cy="104.474" r="85.943" fill="#B37F01"/>
<ellipse cx="885.698" cy="104.542" rx="78.4327" ry="83.4632" fill="#E6A902"/>
<path d="M879.984 118.268C879.984 121.527 879.148 124.368 877.474 126.791C875.844 129.213 873.532 131.107 870.537 132.473C867.542 133.794 863.974 134.455 859.833 134.455C855.737 134.455 852.147 133.772 849.064 132.406C846.025 130.997 843.603 129.015 841.797 126.46C840.035 123.906 839 120.888 838.691 117.409H851.311C851.399 119.655 852.147 121.439 853.557 122.76C855.01 124.082 857.015 124.742 859.569 124.742C861.023 124.742 862.278 124.566 863.335 124.214C864.392 123.862 865.207 123.333 865.78 122.628C866.396 121.924 866.705 121.087 866.705 120.118C866.705 119.105 866.242 118.246 865.317 117.541C864.436 116.792 863.291 116.286 861.882 116.021L853.227 114.37C851.333 114.017 849.615 113.467 848.073 112.718C846.532 111.969 845.188 111.044 844.043 109.943C842.942 108.798 842.083 107.476 841.466 105.979C840.894 104.437 840.607 102.72 840.607 100.826C840.607 97.8745 841.4 95.2758 842.986 93.0295C844.572 90.7391 846.752 88.9552 849.527 87.6779C852.302 86.4006 855.473 85.7619 859.041 85.7619C862.829 85.7619 866.176 86.4446 869.083 87.81C872.034 89.1754 874.391 91.1135 876.152 93.6241C877.958 96.0906 878.971 99.0417 879.192 102.477H866.573C866.484 101.024 866.11 99.7685 865.449 98.7114C864.789 97.6543 863.93 96.8394 862.873 96.2668C861.816 95.6942 860.582 95.4079 859.173 95.4079C857.94 95.4079 856.882 95.6061 856.002 96.0026C855.121 96.399 854.438 96.9495 853.953 97.6543C853.469 98.315 853.227 99.0858 853.227 99.9667C853.227 100.671 853.425 101.288 853.821 101.817C854.262 102.301 854.834 102.72 855.539 103.072C856.244 103.38 857.015 103.622 857.851 103.799L867.035 105.583C871.263 106.419 874.479 107.895 876.681 110.009C878.883 112.079 879.984 114.832 879.984 118.268ZM898.211 133.794H885.724V86.3565H898.211V106.309L913.011 86.3565H927.215L910.5 108.622L927.678 133.794H912.482L898.211 112.388V133.794Z" fill="#FFDC49"/>
</g>
<defs>
<clipPath id="clip0_1799_5158">
<rect y="0.540527" width="1214" height="128" rx="8" fill="white"/>
</clipPath>
</defs>
</svg>
