<svg width="71" height="41" viewBox="0 0 71 41" fill="none" xmlns="http://www.w3.org/2000/svg">
<path id="Vector 6905" d="M2.25387 17.2658L0.898514 21.3323C0.830548 21.5362 0.795898 21.7497 0.795898 21.9647V37.5405C0.795898 38.6451 1.69133 39.5405 2.7959 39.5405H67.667C68.7715 39.5405 69.667 38.6451 69.667 37.5405V3.0092C69.667 1.28771 67.6367 0.37053 66.3449 1.50849L58.5233 8.39898C57.6571 9.16208 56.3265 9.03542 55.6198 8.1226L51.2956 2.53721C50.4733 1.47505 48.8585 1.50938 48.0821 2.60552L44.6496 7.45142C44.5404 7.60558 44.4099 7.74349 44.262 7.86104L34.1775 15.877C33.3288 16.5515 32.0973 16.4272 31.4006 15.5965L26.7505 10.0522C25.8182 8.9406 24.0497 9.16034 23.4178 10.4663L20.2842 16.9425C20.2369 17.0401 20.1977 17.1414 20.1669 17.2454L18.4811 22.9348C18.1939 23.9043 16.9246 24.1323 16.3179 23.3234C15.7533 22.5706 14.587 22.7047 14.2081 23.566L13.4834 25.2129C12.793 26.7821 10.5774 26.8121 9.84467 25.2622L5.95939 17.0435C5.18873 15.4133 2.82403 15.5552 2.25387 17.2658Z" fill="url(#paint0_linear_1813_5523)" stroke="url(#paint1_linear_1813_5523)"/>
<defs>
<linearGradient id="paint0_linear_1813_5523" x1="35.2314" y1="-1.41809" x2="35.2314" y2="52.2832" gradientUnits="userSpaceOnUse">
<stop stop-color="#FB5631"/>
<stop offset="0.774011" stop-color="#FB5631" stop-opacity="0"/>
</linearGradient>
<linearGradient id="paint1_linear_1813_5523" x1="35.2314" y1="-1.41809" x2="35.2314" y2="44.3949" gradientUnits="userSpaceOnUse">
<stop stop-color="#FB5631"/>
<stop offset="0.741722" stop-color="#FB5631" stop-opacity="0"/>
</linearGradient>
</defs>
</svg>
