<svg width="22" height="22" viewBox="0 0 22 22" fill="none" xmlns="http://www.w3.org/2000/svg">
<g id="elements">
<path id="Polygon 13" d="M4.32171 8.72345C6.73539 4.45251 7.94222 2.31704 9.59826 1.76734C10.5093 1.46492 11.4907 1.46492 12.4017 1.76734C14.0578 2.31704 15.2646 4.45251 17.6783 8.72345C20.092 12.9944 21.2988 15.1299 20.9368 16.8699C20.7376 17.8271 20.2469 18.6954 19.535 19.3502C18.241 20.5405 15.8274 20.5405 11 20.5405C6.17265 20.5405 3.75897 20.5405 2.46496 19.3502C1.75308 18.6954 1.26239 17.8271 1.06322 16.8699C0.701194 15.1299 1.90803 12.9944 4.32171 8.72345Z" stroke="#8F8F8F" stroke-width="1.5"/>
<path id="Vector 2612" d="M11.2422 16.0405V12.0405C11.2422 11.5691 11.2422 11.3334 11.0957 11.187C10.9493 11.0405 10.7136 11.0405 10.2422 11.0405" stroke="#8F8F8F" stroke-width="1.5" stroke-linecap="round" stroke-linejoin="round"/>
<path id="Vector" d="M10.992 8.04053H11.001" stroke="#8F8F8F" stroke-width="2" stroke-linecap="round" stroke-linejoin="round"/>
</g>
</svg>
