<svg width="22" height="23" viewBox="0 0 22 23" fill="none" xmlns="http://www.w3.org/2000/svg">
<g id="elements">
<path id="Vector" d="M1.52992 13.9346C1.31727 15.2876 2.268 16.2267 3.43205 16.6948C7.89481 18.4891 14.1052 18.4891 18.5679 16.6948C19.732 16.2267 20.6827 15.2876 20.4701 13.9346C20.3394 13.103 19.6932 12.4107 19.2144 11.7345C18.5873 10.838 18.525 9.86024 18.5249 8.81994C18.5249 4.79963 15.1559 1.54053 11 1.54053C6.84413 1.54053 3.47513 4.79963 3.47513 8.81994C3.47503 9.86024 3.41272 10.838 2.78561 11.7345C2.30684 12.4107 1.66061 13.103 1.52992 13.9346Z" stroke="#141B34" stroke-width="1.5" stroke-linecap="round" stroke-linejoin="round"/>
<path id="Icon" d="M8 20.5405C8.79613 21.1624 9.84747 21.5405 11 21.5405C12.1525 21.5405 13.2039 21.1624 14 20.5405" stroke="#141B34" stroke-width="1.5" stroke-linecap="round" stroke-linejoin="round"/>
</g>
</svg>
