<svg width="14" height="23" viewBox="0 0 14 23" fill="none" xmlns="http://www.w3.org/2000/svg">
<g id="elements">
<path id="Vector 5097" d="M11.9909 21.5405H2.00911C0.744133 21.5405 0.849578 19.783 1.34622 19.0367C2.19456 17.7618 3.83234 16.1679 4.07261 14.6033L5.00364 8.54053H8.99636L9.92739 14.6033C10.1677 16.1679 11.8054 17.7618 12.6538 19.0367C13.1504 19.783 13.2559 21.5405 11.9909 21.5405Z" stroke="#8F8F8F" stroke-width="1.5" stroke-linecap="round" stroke-linejoin="round"/>
<path id="Vector 5098" d="M2.5 4.69183V1.74761C2.5 1.57237 2.69777 1.47664 2.82804 1.58883L5.22187 3.65043C5.40158 3.8052 5.62811 3.88996 5.86205 3.88996H8.13795C8.37189 3.88996 8.59842 3.8052 8.77813 3.65043L11.172 1.58883C11.3022 1.47664 11.5 1.57237 11.5 1.74761V4.69183C11.5 5.17535 11.336 5.64358 11.0364 6.01503L9.29985 8.16867C9.10985 8.40429 8.8284 8.54053 8.53162 8.54053H5.46837C5.1716 8.54053 4.89015 8.40429 4.70015 8.16867L2.96356 6.01503C2.66403 5.64358 2.5 5.17535 2.5 4.69183Z" stroke="#8F8F8F" stroke-width="1.5" stroke-linecap="round" stroke-linejoin="round"/>
<path id="Vector 5103" d="M1 17.5405H13" stroke="#8F8F8F" stroke-width="1.5" stroke-linecap="round" stroke-linejoin="round"/>
</g>
</svg>
