<svg width="22" height="20" viewBox="0 0 22 20" fill="none" xmlns="http://www.w3.org/2000/svg">
<g id="elements">
<path id="Vector" d="M12.6713 15.0043L11.9625 14.7589L11.9625 14.7589L12.6713 15.0043ZM20.4081 7.12757L20.102 7.81229V7.81229L20.4081 7.12757ZM20.8969 10.2149L20.1726 10.0199V10.0199L20.8969 10.2149ZM13.4832 13.2259L13.9182 13.8369L13.9182 13.8369L13.4832 13.2259ZM18.8216 12.4928L19.2376 13.1168L19.2376 13.1168L18.8216 12.4928ZM10.7969 7.48583L11.4209 7.0698V7.0698L10.7969 7.48583ZM11.3516 8.31788L10.7275 8.7339L10.7275 8.7339L11.3516 8.31788ZM14.3769 7.40976L13.6654 7.17259V7.17259L14.3769 7.40976ZM11.9625 14.7589C11.2505 16.8155 9.29654 18.2905 7 18.2905V19.7905C9.95536 19.7905 12.4653 17.8917 13.38 15.2497L11.9625 14.7589ZM7 18.2905C4.10051 18.2905 1.75 15.94 1.75 13.0405H0.25C0.25 16.7684 3.27208 19.7905 7 19.7905V18.2905ZM1.75 13.0405C1.75 10.141 4.10051 7.79053 7 7.79053V6.29053C3.27208 6.29053 0.25 9.31261 0.25 13.0405H1.75ZM17.0126 12.2905H15V13.7905H17.0126V12.2905ZM19.4648 7.79053C19.7253 7.79053 19.8805 7.79099 19.9959 7.79942C20.104 7.8073 20.1174 7.81917 20.102 7.81229L20.7141 6.44286C20.504 6.34894 20.2953 6.31727 20.1051 6.3034C19.9224 6.29006 19.7033 6.29053 19.4648 6.29053V7.79053ZM20.25 8.57571C20.25 9.45452 20.2439 9.75517 20.1726 10.0199L21.6211 10.4099C21.7561 9.90833 21.75 9.37162 21.75 8.57571H20.25ZM13.38 15.2497C13.5679 14.707 13.6953 14.3404 13.8062 14.0834C13.9286 13.7993 13.9727 13.7981 13.9182 13.8369L13.0481 12.615C12.7333 12.8392 12.5552 13.1962 12.4287 13.4895C12.2906 13.8098 12.1423 14.2397 11.9625 14.7589L13.38 15.2497ZM15 12.2905C14.5964 12.2905 14.2397 12.2897 13.9536 12.3171C13.6649 12.3448 13.3381 12.4085 13.0481 12.615L13.9182 13.8369C13.8886 13.8579 13.9014 13.829 14.0966 13.8103C14.2944 13.7913 14.566 13.7905 15 13.7905V12.2905ZM18.4056 11.8688C17.9352 12.1823 17.5878 12.2905 17.0126 12.2905V13.7905C17.8873 13.7905 18.5237 13.5928 19.2376 13.1168L18.4056 11.8688ZM21.75 8.57571C21.75 8.32416 21.7591 7.9136 21.6526 7.53569C21.5302 7.1015 21.2521 6.68334 20.7141 6.44286L20.102 7.81229C20.1522 7.83471 20.1672 7.85284 20.1719 7.85866C20.1788 7.86719 20.1938 7.88911 20.2088 7.94256C20.2472 8.07861 20.25 8.25701 20.25 8.57571H21.75ZM20.1726 10.0199C19.9575 10.8191 19.3615 11.2315 18.4056 11.8688L19.2376 13.1168C20.0988 12.5427 21.2354 11.8423 21.6211 10.4099L20.1726 10.0199ZM14.8892 7.79053H19.4648V6.29053H14.8892V7.79053ZM7 7.79053H9.96482V6.29053H7V7.79053ZM10.1728 7.90185L10.7275 8.7339L11.9756 7.90185L11.4209 7.0698L10.1728 7.90185ZM11.7676 9.29053H13.9279V7.79053H11.7676V9.29053ZM10.7275 8.7339C10.9594 9.08165 11.3496 9.29053 11.7676 9.29053V7.79053C11.8512 7.79053 11.9292 7.8323 11.9756 7.90185L10.7275 8.7339ZM9.96482 7.79053C10.0484 7.79053 10.1265 7.8323 10.1728 7.90185L11.4209 7.0698C11.0963 6.58295 10.5499 6.29053 9.96482 6.29053V7.79053ZM14.8892 6.29053C14.334 6.29053 13.841 6.64583 13.6654 7.17259L15.0884 7.64694C15.0598 7.73269 14.9796 7.79053 14.8892 7.79053V6.29053ZM13.9279 9.29053C14.2506 9.29053 14.46 9.10932 14.5485 9.01643C14.6446 8.91555 14.7077 8.80599 14.7462 8.731C14.8257 8.57616 14.8854 8.39814 14.928 8.25671C14.9731 8.10723 15.0113 7.95597 15.04 7.84038C15.0551 7.77915 15.0664 7.73312 15.0765 7.69302C15.0881 7.64756 15.0911 7.63902 15.0884 7.64693L13.6654 7.17259C13.6483 7.22403 13.6329 7.28347 13.6227 7.32365C13.6112 7.3692 13.5972 7.42646 13.584 7.47941C13.5561 7.59215 13.5253 7.71271 13.4918 7.82415C13.4558 7.94365 13.4273 8.01568 13.4119 8.04566C13.403 8.06307 13.4169 8.02962 13.4625 7.98173C13.5005 7.94184 13.6581 7.79053 13.9279 7.79053V9.29053Z" fill="#8F8F8F"/>
<circle id="Ellipse 1622" cx="7" cy="13.0405" r="2" stroke="#8F8F8F" stroke-width="1.5" stroke-linejoin="round"/>
<path id="Vector_2" d="M12.5 3.04053V1.04053M10 4.04053L9 3.04053M15 4.04053L16 3.04053" stroke="#8F8F8F" stroke-width="1.5" stroke-linecap="round" stroke-linejoin="round"/>
</g>
</svg>
