<svg width="16" height="16" viewBox="0 0 16 16" fill="none" xmlns="http://www.w3.org/2000/svg">
<g id="elements">
<circle id="Ellipse 1119" cx="5" cy="5" r="1" stroke="#1D9BF0" stroke-width="1.5" stroke-linecap="round" stroke-linejoin="round"/>
<path id="Rectangle 2056" d="M1.66699 8.00008C1.66699 5.01452 1.66699 3.52174 2.59449 2.59424C3.52198 1.66675 5.01476 1.66675 8.00033 1.66675C10.9859 1.66675 12.4787 1.66675 13.4062 2.59424C14.3337 3.52174 14.3337 5.01452 14.3337 8.00008C14.3337 10.9856 14.3337 12.4784 13.4062 13.4059C12.4787 14.3334 10.9859 14.3334 8.00033 14.3334C5.01476 14.3334 3.52198 14.3334 2.59449 13.4059C1.66699 12.4784 1.66699 10.9856 1.66699 8.00008Z" stroke="#1D9BF0" stroke-width="1.5"/>
<path id="Vector" d="M3.33398 14C6.24896 10.5166 9.51669 5.92267 14.3323 9.02824" stroke="#1D9BF0" stroke-width="1.5"/>
</g>
</svg>
