<svg width="25" height="25" viewBox="0 0 25 25" fill="none" xmlns="http://www.w3.org/2000/svg">
<circle cx="12.1011" cy="12.5405" r="12.1011" fill="#FFDC49"/>
<circle cx="12.1097" cy="12.5322" r="10.4251" fill="#B37F01"/>
<ellipse cx="13.021" cy="12.5405" rx="9.51413" ry="10.1243" fill="#E6A902"/>
<path d="M9.7757 14.2429C9.7757 14.6382 9.67418 14.9828 9.47115 15.2767C9.27346 15.5706 8.99296 15.8003 8.62964 15.9659C8.26633 16.1262 7.83355 16.2064 7.33132 16.2064C6.83443 16.2064 6.39899 16.1235 6.02498 15.9579C5.65632 15.7869 5.36246 15.5465 5.14341 15.2366C4.92969 14.9267 4.80413 14.5608 4.76673 14.1387H6.29747C6.30816 14.4112 6.39899 14.6275 6.56996 14.7878C6.74627 14.9481 6.98938 15.0283 7.29926 15.0283C7.47558 15.0283 7.62785 15.0069 7.75608 14.9641C7.88431 14.9214 7.98315 14.8573 8.05261 14.7718C8.12741 14.6863 8.16481 14.5848 8.16481 14.4673C8.16481 14.3444 8.10871 14.2402 7.99651 14.1547C7.88965 14.0639 7.75074 14.0024 7.57977 13.9704L6.52989 13.77C6.30014 13.7273 6.09177 13.6605 5.90477 13.5696C5.71777 13.4788 5.55481 13.3666 5.41589 13.233C5.28232 13.0941 5.17813 12.9338 5.10333 12.7522C5.03388 12.5652 4.99915 12.3568 4.99915 12.1271C4.99915 11.7691 5.09532 11.4539 5.28766 11.1814C5.48001 10.9035 5.74448 10.6872 6.08108 10.5322C6.41769 10.3773 6.80237 10.2998 7.23515 10.2998C7.69464 10.2998 8.1007 10.3826 8.45333 10.5482C8.8113 10.7139 9.09715 10.949 9.31086 11.2535C9.52992 11.5527 9.65281 11.9107 9.67952 12.3274H8.14878C8.1381 12.1511 8.09268 11.9988 8.01254 11.8706C7.9324 11.7424 7.82821 11.6435 7.69998 11.5741C7.57175 11.5046 7.42215 11.4699 7.25118 11.4699C7.10158 11.4699 6.97335 11.4939 6.86649 11.542C6.75963 11.5901 6.67682 11.6569 6.61804 11.7424C6.55927 11.8225 6.52989 11.916 6.52989 12.0229C6.52989 12.1084 6.55393 12.1832 6.60202 12.2473C6.65545 12.3061 6.7249 12.3568 6.81039 12.3996C6.89588 12.437 6.98938 12.4663 7.09089 12.4877L8.20488 12.7041C8.7178 12.8056 9.10783 12.9846 9.37498 13.2411C9.64212 13.4922 9.7757 13.8261 9.7757 14.2429ZM11.9867 16.1262H10.4719V10.3719H11.9867V12.7923L13.7819 10.3719H15.5049L13.4773 13.0728L15.561 16.1262H13.7177L11.9867 13.5296V16.1262ZM18.2007 16.2464C17.7946 16.2464 17.4126 16.1716 17.0547 16.022C16.702 15.8671 16.3921 15.6534 16.125 15.3809C15.8578 15.1031 15.6495 14.7825 15.4999 14.4192C15.3503 14.0558 15.2755 13.6631 15.2755 13.2411C15.2755 12.819 15.3503 12.4289 15.4999 12.071C15.6495 11.7076 15.8578 11.3897 16.125 11.1173C16.3921 10.8448 16.702 10.6337 17.0547 10.4841C17.4126 10.3292 17.7946 10.2517 18.2007 10.2517C18.7297 10.2517 19.2078 10.3612 19.6353 10.5803C20.0627 10.794 20.4127 11.0959 20.6852 11.4859C20.9576 11.8706 21.1233 12.3167 21.182 12.8243H19.5792C19.5418 12.5839 19.459 12.3728 19.3307 12.1912C19.2025 12.0042 19.0422 11.8599 18.8499 11.7584C18.6629 11.6569 18.4518 11.6061 18.2167 11.6061C18.003 11.6061 17.8107 11.6462 17.6397 11.7263C17.4687 11.8011 17.3218 11.9107 17.1989 12.0549C17.0814 12.1992 16.9905 12.3728 16.9264 12.5759C16.8623 12.7736 16.8303 12.9953 16.8303 13.2411C16.8303 13.4868 16.8623 13.7112 16.9264 13.9143C16.9905 14.1173 17.0814 14.2909 17.1989 14.4352C17.3218 14.5795 17.4687 14.6917 17.6397 14.7718C17.8107 14.8519 18.003 14.892 18.2167 14.892C18.4518 14.892 18.6629 14.8413 18.8499 14.7397C19.0422 14.6329 19.1998 14.4886 19.3227 14.307C19.4509 14.12 19.5364 13.9062 19.5792 13.6658H21.182C21.1179 14.1787 20.9496 14.6302 20.6771 15.0202C20.4047 15.4049 20.0547 15.7068 19.6273 15.9259C19.2052 16.1396 18.7297 16.2464 18.2007 16.2464Z" fill="#FFDC49"/>
</svg>
